<svg xmlns="http://www.w3.org/2000/svg" width="200" height="200" viewBox="0 0 200 200"><path fill="#464646" d="M65 37a14,14 0 1,1 28,0a14,14 0 1,1 -28,0M107 37a14,14 0 1,1 28,0a14,14 0 1,1 -28,0M107 163a14,14 0 1,1 28,0a14,14 0 1,1 -28,0M65 163a14,14 0 1,1 28,0a14,14 0 1,1 -28,0M23 79a14,14 0 1,1 28,0a14,14 0 1,1 -28,0M149 79a14,14 0 1,1 28,0a14,14 0 1,1 -28,0M149 121a14,14 0 1,1 28,0a14,14 0 1,1 -28,0M23 121a14,14 0 1,1 28,0a14,14 0 1,1 -28,0"/><path fill="#e3e3e3" d="M16 37L37 16L58 37L37 58ZM163 16L184 37L163 58L142 37ZM184 163L163 184L142 163L163 142ZM37 184L16 163L37 142L58 163Z"/><path fill="#59c7b9" d="M58 58L100 58L100 100L58 100ZM73.1 84a10.9,10.9 0 1,0 21.8,0a10.9,10.9 0 1,0 -21.8,0M142 58L142 100L100 100L100 58ZM105 84a10.9,10.9 0 1,0 21.8,0a10.9,10.9 0 1,0 -21.8,0M142 142L100 142L100 100L142 100ZM105 116a10.9,10.9 0 1,0 21.8,0a10.9,10.9 0 1,0 -21.8,0M58 142L58 100L100 100L100 142ZM73.1 116a10.9,10.9 0 1,0 21.8,0a10.9,10.9 0 1,0 -21.8,0"/></svg>